<?xml version="1.0" standalone="no"?><!DOCTYPE svg PUBLIC "-//W3C//DTD SVG 1.1//EN" "http://www.w3.org/Graphics/SVG/1.1/DTD/svg11.dtd"><svg t="1571361123700" class="icon" viewBox="0 0 1024 1024" version="1.1" xmlns="http://www.w3.org/2000/svg" p-id="1107" width="24" height="24" xmlns:xlink="http://www.w3.org/1999/xlink"><defs><style type="text/css"></style></defs><path d="M664.917 737.735c-25.486-7.282-152.917-58.254-163.84-65.536-14.563-7.282-40.050-29.127-43.691-40.050-3.641-7.282-10.923-54.613 14.563-76.459 7.282-7.282 14.563-14.563 25.486-21.845 7.282-7.282 14.563-7.282 29.127-61.895 3.641 0 7.282-7.282 10.923-10.923 3.641-7.282 14.563-54.613 18.205-65.536 3.641-18.205-10.923-25.486-10.923-25.486v-65.536c-3.641-58.254-25.486-138.354-72.818-149.277-10.923-3.641-32.768-3.641-32.768-3.641-18.205-21.845-36.409-40.050-72.818-40.050-69.177 0-101.945 21.845-120.149 40.050-87.381 83.741-69.177 192.967-69.177 211.171-3.641 3.641-14.563 7.282-7.282 29.127 3.641 18.205 10.923 54.613 14.563 61.895 3.641 3.641 7.282 10.923 10.923 14.563 14.563 47.331 21.845 58.254 25.486 65.536 7.282 7.282 18.205 14.563 25.486 21.845 18.205 18.205 14.563 65.536 10.923 76.459-3.641 10.923-21.845 29.127-40.050 40.050-14.563 10.923-145.635 54.613-171.122 61.895-21.845 7.282-25.486 14.563-29.127 36.409-3.641 21.845-14.563 69.177-14.563 94.663 0 21.845 7.282 32.768 32.768 32.768h651.719c29.127 0 32.768-18.205 32.768-32.768s-10.923-69.177-14.563-87.381c-14.563-25.486-25.486-36.409-40.050-40.050zM999.879 785.063c-3.641-18.205-25.486-43.691-61.895-58.254s-131.072-32.768-138.354-43.691c-3.641-3.641-14.563-32.768-7.282-72.818h105.586c7.282-10.923-29.127-32.768-21.845-43.691 21.845-43.691 25.486-98.304 21.845-131.072-3.641-47.331-21.845-91.022-32.768-109.227-43.691-83.741-131.072-98.304-152.917-98.304-69.177-3.641-105.586 32.768-116.509 43.691 7.282 14.563 14.563 101.945 10.923 152.917-7.282 61.895-58.254 131.072-65.536 134.713 3.641 7.282 3.641 3.641 7.282 10.923 10.923 10.923-29.127 40.050-21.845 43.691h105.586c3.641 18.205 3.641 36.409 0 47.331 18.205 7.282 80.099 29.127 94.663 40.050 40.050 29.127 50.973 152.917 50.973 171.122 0 10.923-3.641 25.486-14.563 29.127h222.094c25.486 0 29.127-18.205 29.127-32.768s-10.923-65.536-14.563-83.741z" fill="#8590a6" p-id="1108"></path></svg>