<?xml version="1.0" standalone="no"?><!DOCTYPE svg PUBLIC "-//W3C//DTD SVG 1.1//EN" "http://www.w3.org/Graphics/SVG/1.1/DTD/svg11.dtd"><svg t="1571361220036" class="icon" viewBox="0 0 1024 1024" version="1.1" xmlns="http://www.w3.org/2000/svg" p-id="2717" width="24" height="24" xmlns:xlink="http://www.w3.org/1999/xlink"><defs><style type="text/css"></style></defs><path d="M977.6128 374.1696c0-155.2384-121.856-281.6-271.36-281.6A265.5232 265.5232 0 0 0 512 178.7904a265.8816 265.8816 0 0 0-194.2528-86.2208c-149.6064 0-271.36 126.2592-271.36 281.6a122.88 122.88 0 0 0 0.9216 13.6704v3.84A239.5136 239.5136 0 0 0 66.9184 481.28c0.4096 1.1776 0.8192 2.304 1.3312 3.328C150.9376 683.1104 469.248 911.36 482.7648 921.6a46.6944 46.6944 0 0 0 57.1904-0.256c11.5712-9.0112 283.0848-204.4416 390.8608-389.12a191.6928 191.6928 0 0 0 9.8816-17.5104c0.8192-1.6896 1.5872-3.328 2.5088-5.12l0.3584-0.768a17.3056 17.3056 0 0 1 1.1776-1.8944 299.8784 299.8784 0 0 0 15.6672-35.84 223.7952 223.7952 0 0 0 16.64-79.7696v-5.12a113.0496 113.0496 0 0 0 0.5632-12.032z" p-id="2718" fill="#8590a6"></path></svg>