<?xml version="1.0" standalone="no"?><!DOCTYPE svg PUBLIC "-//W3C//DTD SVG 1.1//EN" "http://www.w3.org/Graphics/SVG/1.1/DTD/svg11.dtd"><svg t="1571361182722" class="icon" viewBox="0 0 1024 1024" version="1.1" xmlns="http://www.w3.org/2000/svg" p-id="1900" width="24" height="24" xmlns:xlink="http://www.w3.org/1999/xlink"><defs><style type="text/css"></style></defs><path d="M384 320h512c38.4 0 64-25.6 64-64s-25.6-64-64-64H384c-38.4 0-64 25.6-64 64s25.6 64 64 64z m512 128H384c-38.4 0-64 25.6-64 64s25.6 64 64 64h512c38.4 0 64-25.6 64-64s-25.6-64-64-64z m0 256H384c-38.4 0-64 25.6-64 64s25.6 64 64 64h512c38.4 0 64-25.6 64-64s-25.6-64-64-64zM128 192c-38.4 0-64 25.6-64 64s25.6 64 64 64 64-25.6 64-64-25.6-64-64-64z m0 256c-38.4 0-64 25.6-64 64s25.6 64 64 64 64-25.6 64-64-25.6-64-64-64z m0 256c-38.4 0-64 25.6-64 64s25.6 64 64 64 64-25.6 64-64-25.6-64-64-64z" p-id="1901" fill="#8590a6"></path></svg>