<?xml version="1.0" standalone="no"?><!DOCTYPE svg PUBLIC "-//W3C//DTD SVG 1.1//EN" "http://www.w3.org/Graphics/SVG/1.1/DTD/svg11.dtd"><svg t="1571316807898" class="icon" viewBox="0 0 1024 1024" version="1.1" xmlns="http://www.w3.org/2000/svg" p-id="3319" xmlns:xlink="http://www.w3.org/1999/xlink" width="24" height="24"><defs><style type="text/css"></style></defs><path d="M508.48 64a427.264 427.264 0 0 1 173.632 33.472c54.144 23.04 101.696 54.336 142.592 93.888a439.168 439.168 0 0 1 133.504 313.216c0.64 58.24-9.28 113.024-29.952 164.48a437.248 437.248 0 0 1-86.272 136.576 473.408 473.408 0 0 1-129.92 97.984 449.728 449.728 0 0 1-160.896 47.68c-14.912 2.048-30.848 3.712-47.744 5.12a1174.272 1174.272 0 0 1-125.376 3.008c-25.408-0.64-54.016-2.752-85.824-6.08-70.4-6.784-122.688-15.552-156.864-26.368-34.176-10.816-47.872-16.896-41.152-18.304 35.904-6.08 66.688-15.872 92.416-29.44 13.504-7.424 19.136-18.112 16.704-32a78.4 78.4 0 0 0-19.776-39.104 462.08 462.08 0 0 1-83.776-132.48 440.32 440.32 0 0 1-33.984-162.88 427.072 427.072 0 0 1 33.472-173.632 454.464 454.464 0 0 1 94.4-142.144A447.424 447.424 0 0 1 508.48 64z m197.952 446.72c0 17.6 6.08 32.64 18.304 45.184 12.16 12.544 27.008 18.752 44.672 18.752 17.6 0 32.64-6.272 45.184-18.752a61.504 61.504 0 0 0 18.752-45.184 60.032 60.032 0 0 0-18.752-44.672 62.72 62.72 0 0 0-45.184-18.24 60.8 60.8 0 0 0-44.672 18.24 60.672 60.672 0 0 0-18.304 44.672z m-254.848 0c0 17.6 6.4 32.832 19.328 45.696a62.4 62.4 0 0 0 45.696 19.264 62.144 62.144 0 0 0 46.208-19.264 63.36 63.36 0 0 0 18.688-45.696 63.04 63.04 0 0 0-18.752-46.208 62.848 62.848 0 0 0-46.208-18.752 63.424 63.424 0 0 0-45.696 18.752 62.272 62.272 0 0 0-19.264 46.208z m-251.776-0.96c0 17.6 6.272 32.832 18.752 45.696 12.544 12.8 27.584 19.264 45.184 19.264a62.08 62.08 0 0 0 46.208-19.264 63.232 63.232 0 0 0 18.816-45.696 61.76 61.76 0 0 0-18.752-45.184 62.976 62.976 0 0 0-46.272-18.816 61.76 61.76 0 0 0-45.184 18.752 61.824 61.824 0 0 0-18.752 45.248z" p-id="3320" fill="#8590a6"></path></svg>